<svg width="600" height="600" viewBox="0 0 600 600" fill="none" xmlns="http://www.w3.org/2000/svg">
<rect x="172.558" y="154.585" width="265.17" height="300.291" rx="44" fill="#8EC657"/>
<path d="M283.248 38.8644C291.457 25.5963 310.756 25.5963 318.965 38.8644L392.604 157.887C401.26 171.878 391.197 189.936 374.746 189.936H227.467C211.016 189.936 200.953 171.878 209.609 157.887L283.248 38.8644Z" fill="#8EC657"/>
<path d="M321.8 569.701C313.703 583.092 294.34 583.259 286.036 570.009L212.323 452.402C203.601 438.485 213.526 420.381 229.956 420.239L375.535 418.985C391.965 418.844 402.171 436.774 393.667 450.839L321.8 569.701Z" fill="#8EC657"/>
<path d="M305.143 154.585L394.08 455.472H216.206L305.143 154.585Z" fill="#6D9940" fill-opacity="0.47"/>
<path fill-rule="evenodd" clip-rule="evenodd" d="M172.088 203.836L208.874 455.052L299.238 154.581L216 154.742C191.699 154.789 172.035 174.526 172.079 198.827L172.088 203.836Z" fill="white" fill-opacity="0.25"/>
<path d="M437.658 203.839L400.872 455.055L310.508 154.585L404.025 154.765C422.649 154.801 437.718 170.48 437.683 189.785L437.658 203.839Z" fill="white" fill-opacity="0.25"/>
<path d="M371.763 426.223L249.785 253.649V423H219.17V186.94H232.061L350.815 350.168V186.94H381.431V426.223H371.763Z" fill="white"/>
</svg>
