<svg width="266" height="590" viewBox="0 0 266 590" fill="none" xmlns="http://www.w3.org/2000/svg">
<rect x="0.557861" y="144.585" width="265.17" height="300.291" rx="44" fill="#8EC657"/>
<path d="M111.248 28.8644C119.457 15.5963 138.756 15.5963 146.965 28.8644L220.604 147.887C229.26 161.878 219.197 179.936 202.746 179.936H55.4671C39.0158 179.936 28.9531 161.878 37.6088 147.887L111.248 28.8644Z" fill="#8EC657"/>
<path d="M149.8 559.701C141.703 573.092 122.34 573.259 114.036 560.009L40.3235 442.402C31.6009 428.485 41.5259 410.381 57.9558 410.239L203.535 408.985C219.965 408.844 230.171 426.774 221.667 440.839L149.8 559.701Z" fill="#8EC657"/>
<path d="M133.143 144.585L222.08 445.472H44.2057L133.143 144.585Z" fill="#6D9940" fill-opacity="0.47"/>
<path fill-rule="evenodd" clip-rule="evenodd" d="M0.0881009 193.836L36.8739 445.052L127.238 144.581L43.9999 144.742C19.6994 144.789 0.0354126 164.526 0.0790963 188.827L0.0881009 193.836Z" fill="white" fill-opacity="0.25"/>
<path d="M265.658 193.839L228.872 445.055L138.508 144.585L232.025 144.765C250.649 144.801 265.718 160.48 265.683 179.785L265.658 193.839Z" fill="white" fill-opacity="0.25"/>
<path d="M199.763 416.223L77.7852 243.649V413H47.1699V176.94H60.0605L178.815 340.168V176.94H209.431V416.223H199.763Z" fill="white"/>
</svg>
