<svg width="1006" height="590" viewBox="0 0 1006 590" fill="none" xmlns="http://www.w3.org/2000/svg">
<g filter="url(#filter0_d_55_35)">
<rect x="4.55798" y="144.585" width="265.17" height="300.291" rx="44" fill="#8EC657"/>
<path d="M115.248 28.8644C123.457 15.5963 142.756 15.5963 150.965 28.8644L224.604 147.887C233.26 161.878 223.197 179.936 206.746 179.936H59.4672C43.0159 179.936 32.9532 161.878 41.6089 147.887L115.248 28.8644Z" fill="#8EC657"/>
<path d="M153.8 559.701C145.703 573.092 126.34 573.259 118.036 560.009L44.3235 442.402C35.6009 428.485 45.526 410.381 61.9558 410.239L207.535 408.985C223.965 408.844 234.171 426.774 225.667 440.839L153.8 559.701Z" fill="#8EC657"/>
<path d="M137.143 144.585L226.08 445.472H48.2057L137.143 144.585Z" fill="#6D9940" fill-opacity="0.47"/>
<path fill-rule="evenodd" clip-rule="evenodd" d="M4.0881 193.836L40.8739 445.052L131.238 144.581L47.9999 144.742C23.6994 144.789 4.03541 164.527 4.0791 188.827L4.0881 193.836Z" fill="white" fill-opacity="0.25"/>
<path d="M269.658 193.84L232.872 445.055L142.508 144.585L236.025 144.765C254.649 144.801 269.718 160.48 269.683 179.785L269.658 193.84Z" fill="white" fill-opacity="0.25"/>
<path d="M203.763 416.223L81.7852 243.649V413H51.1699V176.94H64.0605L182.815 340.168V176.94H213.431V416.223H203.763Z" fill="white"/>
<path d="M391.219 393.281C387.677 399.115 381.479 403.906 372.625 407.656C363.875 411.302 354.708 413.125 345.125 413.125C327.104 413.125 312.938 408.646 302.625 399.688C292.312 390.625 287.156 377.812 287.156 361.25C287.156 341.875 294.396 326.719 308.875 315.781C323.458 304.844 344.135 299.375 370.906 299.375C375.49 299.375 380.906 300.156 387.156 301.719C387.156 282.031 374.708 272.188 349.812 272.188C335.125 272.188 322.833 274.635 312.938 279.531L304.5 249.219C317.938 242.76 333.927 239.531 352.469 239.531C377.99 239.531 396.688 245.365 408.562 257.031C420.438 268.594 426.375 290.573 426.375 322.969V358.75C426.375 381.042 430.854 395.052 439.812 400.781C436.583 406.406 432.99 409.844 429.031 411.094C425.073 412.448 420.542 413.125 415.438 413.125C409.812 413.125 404.76 411.042 400.281 406.875C395.802 402.708 392.781 398.177 391.219 393.281ZM387.469 331.25C380.802 329.896 375.802 329.219 372.469 329.219C341.635 329.219 326.219 339.323 326.219 359.531C326.219 374.531 334.917 382.031 352.312 382.031C375.75 382.031 387.469 370.312 387.469 346.875V331.25ZM581.438 279.062C574.458 274.479 566.802 272.188 558.469 272.188C549.406 272.188 541.333 276.302 534.25 284.531C527.271 292.76 523.781 302.812 523.781 314.688V410H484.719V242.656H523.781V257.969C534.719 245.677 549.25 239.531 567.375 239.531C580.708 239.531 590.917 241.562 598 245.625L581.438 279.062ZM786.969 338.281H667.438C668.167 351.615 672.75 361.979 681.188 369.375C689.625 376.771 700.979 380.469 715.25 380.469C733.062 380.469 746.604 375.833 755.875 366.562L771.031 396.406C757.281 407.552 736.76 413.125 709.469 413.125C683.948 413.125 663.74 405.677 648.844 390.781C634.052 375.781 626.656 354.896 626.656 328.125C626.656 301.771 634.781 280.417 651.031 264.062C667.385 247.708 686.969 239.531 709.781 239.531C734.052 239.531 753.531 246.771 768.219 261.25C782.906 275.729 790.25 294.167 790.25 316.562C790.25 321.354 789.156 328.594 786.969 338.281ZM668.844 308.906H751.031C748.323 284.427 734.781 272.188 710.406 272.188C688.115 272.188 674.26 284.427 668.844 308.906ZM945.312 410V313.281C945.312 299.01 942.552 288.594 937.031 282.031C931.615 275.469 922.708 272.188 910.312 272.188C904.583 272.188 898.438 273.802 891.875 277.031C885.417 280.26 880.365 284.271 876.719 289.062V410H837.656V242.656H865.781L872.969 258.281C883.594 245.781 899.271 239.531 920 239.531C939.896 239.531 955.573 245.521 967.031 257.5C978.594 269.375 984.375 285.99 984.375 307.344V410H945.312Z" fill="white"/>
</g>
<defs>
<filter id="filter0_d_55_35" x="0.0790253" y="18.9133" width="988.296" height="558.933" filterUnits="userSpaceOnUse" color-interpolation-filters="sRGB">
<feFlood flood-opacity="0" result="BackgroundImageFix"/>
<feColorMatrix in="SourceAlpha" type="matrix" values="0 0 0 0 0 0 0 0 0 0 0 0 0 0 0 0 0 0 127 0" result="hardAlpha"/>
<feOffset dy="4"/>
<feGaussianBlur stdDeviation="2"/>
<feComposite in2="hardAlpha" operator="out"/>
<feColorMatrix type="matrix" values="0 0 0 0 0 0 0 0 0 0 0 0 0 0 0 0 0 0 0.25 0"/>
<feBlend mode="normal" in2="BackgroundImageFix" result="effect1_dropShadow_55_35"/>
<feBlend mode="normal" in="SourceGraphic" in2="effect1_dropShadow_55_35" result="shape"/>
</filter>
</defs>
</svg>
